<svg xmlns="http://www.w3.org/2000/svg" viewBox="0 0 1280 720" data-pptx-page-role="content" font-family="Microsoft YaHei, Arial, sans-serif">
  <defs>
    <marker id="arrowTri7" viewBox="0 0 10 10" refX="8" refY="5" markerWidth="7" markerHeight="7" orient="auto">
      <path d="M0 0 L10 5 L0 10 Z" fill="#375A86"/>
    </marker>
  </defs>
  <rect id="bg" x="0" y="0" width="1280" height="720" fill="#FFFFFF" data-pptx-role="background"/>
  <g id="header" data-pptx-bounds="40 40 1200 100">
    <text x="40" y="66" font-size="16" fill="#375A86" letter-spacing="2">03 · 核心功能详解</text>
    <text x="40" y="106" font-size="36" font-weight="bold" fill="#1E293B">汇报触达：免登录汇报 + 自动群通知</text>
    <rect x="40" y="120" width="48" height="4" fill="#C9A227"/>
    <line x1="40" y1="142" x2="1240" y2="142" stroke="#DCE6F0" stroke-width="1"/>
  </g>
  <g id="lead" data-pptx-bounds="40 156 1200 66">
    <text x="40" y="188" font-size="20" fill="#1E293B">进度追踪的成本越低，成员越愿意更新；通知触达越自动，负责人越不需要追问。<tspan x="40" dy="28">这条链路把“汇报”变成一件顺手的事。</tspan></text>
  </g>
  <g id="step-1" data-pptx-bounds="40 238 272 190">
    <rect x="40" y="238" width="272" height="190" rx="4" fill="#F0F6FC"/>
    <text x="66" y="276" font-size="18" font-weight="bold" fill="#C9A227">01</text>
    <use data-icon="tabler-outline/link" x="66" y="292" width="34" height="34" fill="#375A86" stroke-width="2"/>
    <text x="66" y="362" font-size="20" font-weight="bold" fill="#1E293B">生成链接</text>
    <text x="66" y="396" font-size="14" fill="#64748B">token 绑定方案与成员，免登录，<tspan x="66" dy="20">打开只看到自己的任务。</tspan></text>
  </g>
  <g id="arrow-1" data-pptx-bounds="312 320 30 30">
    <line x1="312" y1="335" x2="338" y2="335" stroke="#375A86" stroke-width="2" marker-end="url(#arrowTri7)"/>
  </g>
  <g id="step-2" data-pptx-bounds="342 238 272 190">
    <rect x="342" y="238" width="272" height="190" rx="4" fill="#F0F6FC"/>
    <text x="368" y="276" font-size="18" font-weight="bold" fill="#C9A227">02</text>
    <use data-icon="tabler-outline/headphones" x="368" y="292" width="34" height="34" fill="#375A86" stroke-width="2"/>
    <text x="368" y="362" font-size="20" font-weight="bold" fill="#1E293B">语音 / 照片汇报</text>
    <text x="368" y="396" font-size="14" fill="#64748B">语音上报状态、工时与备注，<tspan x="368" dy="20">交付物拍照即可上传。</tspan></text>
  </g>
  <g id="arrow-2" data-pptx-bounds="614 320 30 30">
    <line x1="614" y1="335" x2="640" y2="335" stroke="#375A86" stroke-width="2" marker-end="url(#arrowTri7)"/>
  </g>
  <g id="step-3" data-pptx-bounds="644 238 272 190">
    <rect x="644" y="238" width="272" height="190" rx="4" fill="#F0F6FC"/>
    <text x="670" y="276" font-size="18" font-weight="bold" fill="#C9A227">03</text>
    <use data-icon="tabler-outline/clipboard-check" x="670" y="292" width="34" height="34" fill="#375A86" stroke-width="2"/>
    <text x="670" y="362" font-size="20" font-weight="bold" fill="#1E293B">负责人确认</text>
    <text x="670" y="396" font-size="14" fill="#64748B">确认完成，变更进入计划，<tspan x="670" dy="20">并自动触发即时重算。</tspan></text>
  </g>
  <g id="arrow-3" data-pptx-bounds="916 320 30 30">
    <line x1="916" y1="335" x2="942" y2="335" stroke="#375A86" stroke-width="2" marker-end="url(#arrowTri7)"/>
  </g>
  <g id="step-4" data-pptx-bounds="946 238 294 190">
    <rect x="946" y="238" width="294" height="190" rx="4" fill="#F0F6FC"/>
    <text x="972" y="276" font-size="18" font-weight="bold" fill="#C9A227">04</text>
    <use data-icon="tabler-outline/send" x="972" y="292" width="34" height="34" fill="#375A86" stroke-width="2"/>
    <text x="972" y="362" font-size="20" font-weight="bold" fill="#1E293B">群通知 / 今日播报</text>
    <text x="972" y="396" font-size="14" fill="#64748B">企业微信、飞书、钉钉 Webhook 自动推送，<tspan x="972" dy="20">云端 TTS 播报今日待办。</tspan></text>
  </g>
  <g id="mechanism-grid" data-pptx-bounds="40 462 1200 180">
    <rect x="40" y="462" width="380" height="180" rx="4" fill="#FFFFFF" stroke="#DCE6F0" stroke-width="1"/>
    <use data-icon="tabler-outline/lock" x="66" y="486" width="30" height="30" fill="#375A86" stroke-width="2"/>
    <text x="110" y="508" font-size="20" font-weight="bold" fill="#1E293B">全程免登录</text>
    <text x="66" y="550" font-size="15" fill="#1E293B">token 绑定方案与成员，无需注册，<tspan x="66" dy="23">手机即可完成汇报与确认。</tspan></text>
    <rect x="450" y="462" width="380" height="180" rx="4" fill="#FFFFFF" stroke="#DCE6F0" stroke-width="1"/>
    <use data-icon="tabler-outline/bell" x="476" y="486" width="30" height="30" fill="#375A86" stroke-width="2"/>
    <text x="520" y="508" font-size="20" font-weight="bold" fill="#1E293B">自动触达</text>
    <text x="476" y="550" font-size="15" fill="#1E293B">状态变更自动推送 Webhook，<tspan x="476" dy="23">无需人工转发，消息不遗漏。</tspan></text>
    <rect x="860" y="462" width="380" height="180" rx="4" fill="#FFFFFF" stroke="#DCE6F0" stroke-width="1"/>
    <use data-icon="tabler-outline/calendar-stats" x="886" y="486" width="30" height="30" fill="#375A86" stroke-width="2"/>
    <text x="930" y="508" font-size="20" font-weight="bold" fill="#1E293B">今日播报</text>
    <text x="886" y="550" font-size="15" fill="#1E293B">云端 TTS 朗读今日待办要点，<tspan x="886" dy="23">团队节奏一目了然。</tspan></text>
  </g>
  <g id="footer" data-pptx-bounds="40 676 1200 30">
    <text x="40" y="694" font-size="12" fill="#64748B">协作分工智能体 · 昇腾全模态版</text>
    <text x="1240" y="694" font-size="12" fill="#64748B" text-anchor="end">16 / 29 · v7.1</text>
  </g>
</svg>
