<svg xmlns="http://www.w3.org/2000/svg" viewBox="0 0 1280 720" data-pptx-page-role="content" font-family="Microsoft YaHei, Arial, sans-serif">
  <rect id="bg" x="0" y="0" width="1280" height="720" fill="#FFFFFF" data-pptx-role="background"/>
  <g id="header" data-pptx-bounds="40 40 1200 100">
    <text x="40" y="66" font-size="16" fill="#17457F" letter-spacing="2">03 · 核心功能详解</text>
    <text x="40" y="106" font-size="36" font-weight="bold" fill="#1E293B">全模态交互：五种模态 × 真实协作场景</text>
    <rect x="40" y="120" width="48" height="4" fill="#C9A227"/>
    <line x1="40" y1="142" x2="1240" y2="142" stroke="#D9E1EC" stroke-width="1"/>
  </g>
  <g id="matrix-head" data-pptx-bounds="40 164 1200 46">
    <rect x="40" y="164" width="180" height="46" fill="#17457F"/>
    <text x="58" y="192" font-size="16" font-weight="bold" fill="#FFFFFF">模态</text>
    <rect x="220" y="164" width="380" height="46" fill="#17457F"/>
    <text x="238" y="192" font-size="16" font-weight="bold" fill="#FFFFFF">能力</text>
    <rect x="600" y="164" width="360" height="46" fill="#17457F"/>
    <text x="618" y="192" font-size="16" font-weight="bold" fill="#FFFFFF">典型场景</text>
    <rect x="960" y="164" width="280" height="46" fill="#17457F"/>
    <text x="978" y="192" font-size="16" font-weight="bold" fill="#FFFFFF">对应接口</text>
  </g>
  <g id="row-1" data-pptx-bounds="40 210 1200 74">
    <rect x="40" y="210" width="180" height="74" fill="#F2F5FA"/>
    <use data-icon="tabler-outline/message" x="58" y="226" width="26" height="26" fill="#17457F" stroke-width="2"/>
    <text x="94" y="246" font-size="16" font-weight="bold" fill="#1E293B">文本</text>
    <rect x="220" y="210" width="380" height="74" fill="#FFFFFF"/>
    <text x="238" y="244" font-size="16" fill="#1E293B">SSE 流式对话、AI 建议抽屉带方案快照</text>
    <text x="238" y="272" font-size="14" fill="#64748B">边看方案边提问，实时增量显示</text>
    <rect x="600" y="210" width="360" height="74" fill="#F2F5FA"/>
    <text x="618" y="252" font-size="16" fill="#1E293B">边看方案边提问</text>
    <rect x="960" y="210" width="280" height="74" fill="#FFFFFF"/>
    <text x="978" y="252" font-size="14" fill="#17457F">/api/realtime/chat</text>
  </g>
  <g id="row-2" data-pptx-bounds="40 284 1200 74">
    <rect x="40" y="284" width="180" height="74" fill="#FFFFFF"/>
    <use data-icon="tabler-outline/microphone" x="58" y="300" width="26" height="26" fill="#17457F" stroke-width="2"/>
    <text x="94" y="320" font-size="16" font-weight="bold" fill="#1E293B">语音</text>
    <rect x="220" y="284" width="380" height="74" fill="#F2F5FA"/>
    <text x="238" y="318" font-size="16" fill="#1E293B">麦克风对话、语音需求输入、语音汇报</text>
    <text x="238" y="346" font-size="14" fill="#64748B">说话排期、路上汇报</text>
    <rect x="600" y="284" width="360" height="74" fill="#FFFFFF"/>
    <text x="618" y="326" font-size="16" fill="#1E293B">说话排期、路上汇报</text>
    <rect x="960" y="284" width="280" height="74" fill="#F2F5FA"/>
    <text x="978" y="326" font-size="14" fill="#17457F">/api/realtime/voice-chat</text>
  </g>
  <g id="row-3" data-pptx-bounds="40 358 1200 74">
    <rect x="40" y="358" width="180" height="74" fill="#F2F5FA"/>
    <use data-icon="tabler-outline/camera" x="58" y="374" width="26" height="26" fill="#17457F" stroke-width="2"/>
    <text x="94" y="394" font-size="16" font-weight="bold" fill="#1E293B">图片</text>
    <rect x="220" y="358" width="380" height="74" fill="#FFFFFF"/>
    <text x="238" y="392" font-size="16" fill="#1E293B">拍照需求、白板 / 截图 / 扫描 PDF 理解</text>
    <text x="238" y="420" font-size="14" fill="#64748B">无文字流程图也能理解</text>
    <rect x="600" y="358" width="360" height="74" fill="#F2F5FA"/>
    <text x="618" y="400" font-size="16" fill="#1E293B">拍照立项、白板进拆解</text>
    <rect x="960" y="358" width="280" height="74" fill="#FFFFFF"/>
    <text x="978" y="400" font-size="14" fill="#17457F">/api/analyze-files</text>
  </g>
  <g id="row-4" data-pptx-bounds="40 432 1200 74">
    <rect x="40" y="432" width="180" height="74" fill="#FFFFFF"/>
    <use data-icon="tabler-outline/video" x="58" y="448" width="26" height="26" fill="#17457F" stroke-width="2"/>
    <text x="94" y="468" font-size="16" font-weight="bold" fill="#1E293B">视频</text>
    <rect x="220" y="432" width="380" height="74" fill="#F2F5FA"/>
    <text x="238" y="466" font-size="16" fill="#1E293B">会议录像边看边听、答辩录像表现观察</text>
    <text x="238" y="494" font-size="14" fill="#64748B">抽帧 + 抽音频分别理解后合并</text>
    <rect x="600" y="432" width="360" height="74" fill="#FFFFFF"/>
    <text x="618" y="474" font-size="16" fill="#1E293B">会议旁听整理任务</text>
    <rect x="960" y="432" width="280" height="74" fill="#F2F5FA"/>
    <text x="978" y="474" font-size="14" fill="#17457F">/api/realtime/meeting</text>
  </g>
  <g id="row-5" data-pptx-bounds="40 506 1200 74">
    <rect x="40" y="506" width="180" height="74" fill="#F2F5FA"/>
    <use data-icon="tabler-outline/volume" x="58" y="522" width="26" height="26" fill="#17457F" stroke-width="2"/>
    <text x="94" y="542" font-size="16" font-weight="bold" fill="#1E293B">TTS</text>
    <rect x="220" y="506" width="380" height="74" fill="#FFFFFF"/>
    <text x="238" y="540" font-size="16" fill="#1E293B">语音回复开关与重听、今日播报</text>
    <text x="238" y="568" font-size="14" fill="#64748B">云端 TTS 朗读今日待办</text>
    <rect x="600" y="506" width="360" height="74" fill="#F2F5FA"/>
    <text x="618" y="548" font-size="16" fill="#1E293B">今日待办播报</text>
    <rect x="960" y="506" width="280" height="74" fill="#FFFFFF"/>
    <text x="978" y="548" font-size="14" fill="#17457F">/api/realtime/tts</text>
  </g>
  <g id="matrix-note" data-pptx-bounds="40 606 1200 56">
    <rect x="40" y="606" width="1200" height="52" rx="4" fill="#F2F5FA"/>
    <use data-icon="tabler-outline/api" x="68" y="618" width="28" height="28" fill="#17457F" stroke-width="2"/>
    <text x="110" y="640" font-size="16" fill="#1E293B">每种模态都有对应接口与真实协作动作，全模态能力落进工作流而非停留在演示。</text>
  </g>
  <g id="footer" data-pptx-bounds="40 676 1200 30">
    <text x="40" y="694" font-size="12" fill="#64748B">协作分工智能体 · 昇腾全模态版</text>
    <text x="1240" y="694" font-size="12" fill="#64748B" text-anchor="end">17 / 29 · v7.1</text>
  </g>
</svg>
