<svg xmlns="http://www.w3.org/2000/svg" viewBox="0 0 1280 720" data-pptx-page-role="content" font-family="Microsoft YaHei, Arial, sans-serif">
  <defs>
    <marker id="arrowTri2" viewBox="0 0 10 10" refX="8" refY="5" markerWidth="7" markerHeight="7" orient="auto">
      <path d="M0 0 L10 5 L0 10 Z" fill="#375A86" />
    </marker>
    <marker id="arrowGold" viewBox="0 0 10 10" refX="8" refY="5" markerWidth="7" markerHeight="7" orient="auto">
      <path d="M0 0 L10 5 L0 10 Z" fill="#C9A227" />
    </marker>
  </defs>
  <rect id="bg" x="0" y="0" width="1280" height="720" fill="#FFFFFF" data-pptx-role="background" />
  <g id="header" data-pptx-bounds="40 40 1200 100">
    <text x="40" y="66" font-size="16" fill="#375A86" letter-spacing="2">01 · 项目概览</text>
    <text x="40" y="106" font-size="36" font-weight="bold" fill="#1E293B">解决思路：以全模态能力驱动完整协作闭环</text>
    <rect x="40" y="120" width="48" height="4" fill="#C9A227" />
    <line x1="40" y1="142" x2="1240" y2="142" stroke="#DCE6F0" stroke-width="1" />
  </g>
  <g id="lead" data-pptx-bounds="40 158 1200 66">
    <text fill="#1E293B" font-size="20" x="40" y="190">我们的答案不是做一个更强的聊天机器人，而是把全模态能力接进一条完整的协作流程：</text><text fill="#1E293B" font-size="20" x="40" y="218">从立项到交付，每一步都有明确的动作和反馈，环环相扣。</text></g>
  <g id="loop-step-1" data-pptx-bounds="40 240 216 196">
    <rect x="40" y="240" width="216" height="196" rx="4" fill="#F0F6FC" />
    <text x="64" y="272" font-size="18" font-weight="bold" fill="#C9A227">01</text>
    
  <g transform="translate(64, 288) scale(1.41667)" fill="none" stroke="#375A86" stroke-width="2">
    <path d="M5 7h1a2 2 0 0 0 2 -2a1 1 0 0 1 1 -1h6a1 1 0 0 1 1 1a2 2 0 0 0 2 2h1a2 2 0 0 1 2 2v9a2 2 0 0 1 -2 2h-14a2 2 0 0 1 -2 -2v-9a2 2 0 0 1 2 -2" />
    <path d="M9 13a3 3 0 1 0 6 0a3 3 0 0 0 -6 0" />
  </g>
    <text x="64" y="352" font-size="18" font-weight="bold" fill="#1E293B">拍照立项</text>
    <text fill="#64748B" font-size="14" x="64" y="380">白板、截图、手绘拍下来就能读懂，</text><text fill="#64748B" font-size="14" x="64" y="400">直接生成项目需求，不用逐字输入。</text></g>
  <g id="loop-arrow-1" data-pptx-bounds="256 310 30 40">
    <line x1="256" y1="330" x2="284" y2="330" stroke="#375A86" stroke-width="2" marker-end="url(#arrowTri2)" />
  </g>
  <g id="loop-step-2" data-pptx-bounds="286 240 216 196">
    <rect x="286" y="240" width="216" height="196" rx="4" fill="#F0F6FC" />
    <text x="310" y="272" font-size="18" font-weight="bold" fill="#C9A227">02</text>
    
  <g transform="translate(310, 288) scale(1.41667)" fill="none" stroke="#375A86" stroke-width="2">
    <path d="M9 5a3 3 0 0 1 3 -3a3 3 0 0 1 3 3v5a3 3 0 0 1 -3 3a3 3 0 0 1 -3 -3l0 -5" />
    <path d="M5 10a7 7 0 0 0 14 0" />
    <path d="M8 21l8 0" />
    <path d="M12 17l0 4" />
  </g>
    <text x="310" y="352" font-size="18" font-weight="bold" fill="#1E293B">说话排期</text>
    <text fill="#64748B" font-size="14" x="310" y="380">录音直接交给模型，听懂后生成</text><text fill="#64748B" font-size="14" x="310" y="400">任务草案，不必先转写再粘贴。</text></g>
  <g id="loop-arrow-2" data-pptx-bounds="502 310 30 40">
    <line x1="502" y1="330" x2="530" y2="330" stroke="#375A86" stroke-width="2" marker-end="url(#arrowTri2)" />
  </g>
  <g id="loop-step-3" data-pptx-bounds="532 240 216 196">
    <rect x="532" y="240" width="216" height="196" rx="4" fill="#F0F6FC" />
    <text x="556" y="272" font-size="18" font-weight="bold" fill="#C9A227">03</text>
    
  <g transform="translate(556, 288) scale(1.41667)" fill="none" stroke="#375A86" stroke-width="2">
    <path d="M5 12l5 5l10 -10" />
  </g>
    <text x="556" y="352" font-size="18" font-weight="bold" fill="#1E293B">确认分工</text>
    <text fill="#64748B" font-size="14" x="556" y="380">草案可以增删、拖拽、调整，</text><text fill="#64748B" font-size="14" x="556" y="400">每次改动即时重算排期与负载。</text></g>
  <g id="loop-arrow-3" data-pptx-bounds="748 310 30 40">
    <line x1="748" y1="330" x2="776" y2="330" stroke="#375A86" stroke-width="2" marker-end="url(#arrowTri2)" />
  </g>
  <g id="loop-step-4" data-pptx-bounds="778 240 216 196">
    <rect x="778" y="240" width="216" height="196" rx="4" fill="#F0F6FC" />
    <text x="802" y="272" font-size="18" font-weight="bold" fill="#C9A227">04</text>
    
  <g transform="translate(802, 288) scale(1.41667)" fill="none" stroke="#375A86" stroke-width="2">
    <path d="M3.5 5.5l1.5 1.5l2.5 -2.5" />
    <path d="M3.5 11.5l1.5 1.5l2.5 -2.5" />
    <path d="M3.5 17.5l1.5 1.5l2.5 -2.5" />
    <path d="M11 6l9 0" />
    <path d="M11 12l9 0" />
    <path d="M11 18l9 0" />
  </g>
    <text x="802" y="352" font-size="18" font-weight="bold" fill="#1E293B">成员汇报</text>
    <text fill="#64748B" font-size="14" x="802" y="380">免登录点开链接，语音或照片就能交，</text><text fill="#64748B" font-size="14" x="802" y="400">负责人确认后自动进入计划。</text></g>
  <g id="loop-arrow-4" data-pptx-bounds="994 310 30 40">
    <line x1="994" y1="330" x2="1022" y2="330" stroke="#375A86" stroke-width="2" marker-end="url(#arrowTri2)" />
  </g>
  <g id="loop-step-5" data-pptx-bounds="1024 240 216 196">
    <rect x="1024" y="240" width="216" height="196" rx="4" fill="#F0F6FC" />
    <text x="1048" y="272" font-size="18" font-weight="bold" fill="#C9A227">05</text>
    
  <g transform="translate(1048, 288) scale(1.41667)" fill="none" stroke="#375A86" stroke-width="2">
    <path d="M10 14l11 -11" />
    <path d="M21 3l-6.5 18a.55 .55 0 0 1 -1 0l-3.5 -7l-7 -3.5a.55 .55 0 0 1 0 -1l18 -6.5" />
  </g>
    <text x="1048" y="352" font-size="18" font-weight="bold" fill="#1E293B">群通知触达</text>
    <text fill="#64748B" font-size="14" x="1048" y="380">状态一变，工作群自动收到通知，</text><text fill="#64748B" font-size="14" x="1048" y="400">每天还有 AI 语音播报今日待办。</text></g>
  <g id="principle-1" data-pptx-bounds="40 476 590 116">
    <rect x="40" y="476" width="590" height="116" rx="4" fill="#F0F6FC" />
    
  <g transform="translate(66, 498) scale(1.33333)" fill="none" stroke="#375A86" stroke-width="2">
    <path d="M4 10a2 2 0 1 0 4 0a2 2 0 0 0 -4 0" />
    <path d="M6 4v4" />
    <path d="M6 12v8" />
    <path d="M10 16a2 2 0 1 0 4 0a2 2 0 0 0 -4 0" />
    <path d="M12 4v10" />
    <path d="M12 18v2" />
    <path d="M16 7a2 2 0 1 0 4 0a2 2 0 0 0 -4 0" />
    <path d="M18 4v1" />
    <path d="M18 9v11" />
  </g>
    <text x="114" y="518" font-size="18" font-weight="bold" fill="#1E293B">设计原则一：创造与正确分离</text>
    <text fill="#1E293B" font-size="15" x="66" y="554">LLM 负责创造性拆解；关键路径、技能评分、</text><text fill="#1E293B" font-size="15" x="66" y="578">负载均衡、依赖校验全部由确定性算法完成。</text></g>
  <g id="principle-2" data-pptx-bounds="650 476 590 116">
    <rect x="650" y="476" width="590" height="116" rx="4" fill="#F0F6FC" />
    
  <g transform="translate(676, 498) scale(1.33333)" fill="none" stroke="#375A86" stroke-width="2">
    <path d="M8 12a4 4 0 1 0 8 0a4 4 0 1 0 -8 0" />
    <path d="M3 12a9 9 0 1 0 18 0a9 9 0 1 0 -18 0" />
    <path d="M15 15l3.35 3.35" />
    <path d="M9 15l-3.35 3.35" />
    <path d="M5.65 5.65l3.35 3.35" />
    <path d="M18.35 5.65l-3.35 3.35" />
  </g>
    <text x="724" y="518" font-size="18" font-weight="bold" fill="#1E293B">设计原则二：全环节兜底</text>
    <text fill="#1E293B" font-size="15" x="676" y="554">每个 Agent 失败都有确定性兜底；</text><text fill="#1E293B" font-size="15" x="676" y="578">断网、模型离线时主链路依然可以完整演示。</text></g>
  <g id="footer" data-pptx-bounds="40 676 1200 30">
    <text x="40" y="694" font-size="12" fill="#64748B">协作分工智能体 · 昇腾全模态版</text>
    <text x="1240" y="694" font-size="12" fill="#64748B" text-anchor="end">05 / 29 · v7.1</text>
  </g>
</svg>