<svg xmlns="http://www.w3.org/2000/svg" viewBox="0 0 1280 720" data-pptx-page-role="section" font-family="Microsoft YaHei, Arial, sans-serif">
  <rect id="bg" x="0" y="0" width="1280" height="720" fill="#375A86" data-pptx-role="background"/>
  <rect id="accent-bar" x="0" y="0" width="8" height="720" fill="#C9A227" data-pptx-role="decoration"/>
  <g id="section-head" data-pptx-bounds="80 150 1120 180">
    <text x="80" y="208" font-size="16" fill="#D5E0EE" letter-spacing="3">02 / 系统架构与核心机制</text>
    <text x="80" y="266" font-size="38" font-weight="bold" fill="#FFFFFF">系统如何运转，计划为何可信</text>
    <line x1="80" y1="300" x2="200" y2="300" stroke="#C9A227" stroke-width="3"/>
  </g>
  <g id="section-list" data-pptx-bounds="80 370 1120 240">
    <!-- icon: tabler-outline/network -->
  <g transform="translate(80, 370) scale(1.5)" fill="none" stroke="#FFFFFF" stroke-width="2">
    <path d="M6 9a6 6 0 1 0 12 0a6 6 0 0 0 -12 0" />
    <path d="M12 3c1.333 .333 2 2.333 2 6s-.667 5.667 -2 6" />
    <path d="M12 3c-1.333 .333 -2 2.333 -2 6s.667 5.667 2 6" />
    <path d="M6 9h12" />
    <path d="M3 20h7" />
    <path d="M14 20h7" />
    <path d="M10 20a2 2 0 1 0 4 0a2 2 0 0 0 -4 0" />
    <path d="M12 15v3" />
  </g>
    <text x="140" y="396" font-size="20" fill="#FFFFFF">总体架构：工作台 → FastAPI 后端 → 昇腾 A3 / 云端双后端</text>
    <!-- icon: tabler-outline/adjustments -->
  <g transform="translate(80, 430) scale(1.5)" fill="none" stroke="#FFFFFF" stroke-width="2">
    <path d="M4 10a2 2 0 1 0 4 0a2 2 0 0 0 -4 0" />
    <path d="M6 4v4" />
    <path d="M6 12v8" />
    <path d="M10 16a2 2 0 1 0 4 0a2 2 0 0 0 -4 0" />
    <path d="M12 4v10" />
    <path d="M12 18v2" />
    <path d="M16 7a2 2 0 1 0 4 0a2 2 0 0 0 -4 0" />
    <path d="M18 4v1" />
    <path d="M18 9v11" />
  </g>
    <text x="140" y="456" font-size="20" fill="#FFFFFF">计划引擎：LLM 创造 × 算法正确的确定性机制</text>
    <!-- icon: tabler-outline/sparkles -->
  <g transform="translate(80, 490) scale(1.5)" fill="none" stroke="#FFFFFF" stroke-width="2">
    <path d="M16 18a2 2 0 0 1 2 2a2 2 0 0 1 2 -2a2 2 0 0 1 -2 -2a2 2 0 0 1 -2 2m0 -12a2 2 0 0 1 2 2a2 2 0 0 1 2 -2a2 2 0 0 1 -2 -2a2 2 0 0 1 -2 2m-7 12a6 6 0 0 1 6 -6a6 6 0 0 1 -6 -6a6 6 0 0 1 -6 6a6 6 0 0 1 6 6" />
  </g>
    <text x="140" y="516" font-size="20" fill="#FFFFFF">全模态接入：统一适配层打通文本 / 语音 / 图片 / 视频 / TTS</text>
    <!-- icon: tabler-outline/send-2 -->
  <g transform="translate(80, 550) scale(1.5)" fill="none" stroke="#FFFFFF" stroke-width="2">
    <path d="M4.698 4.034l16.302 7.966l-16.302 7.966a.503 .503 0 0 1 -.546 -.124a.555 .555 0 0 1 -.12 -.568l2.468 -7.274l-2.468 -7.274a.555 .555 0 0 1 .12 -.568a.503 .503 0 0 1 .546 -.124" />
    <path d="M6.5 12h14.5" />
  </g>
    <text x="140" y="576" font-size="20" fill="#FFFFFF">协作闭环：计划 → 执行 → 汇报 → 通知触达</text>
  </g>
  <g id="section-footer" data-pptx-bounds="80 656 1120 40">
    <text x="80" y="684" font-size="14" fill="#D5E0EE">P06–P10</text>
    <text x="1200" y="684" font-size="12" fill="#D5E0EE" text-anchor="end">06 / 29 · v7.1</text>
  </g>
</svg>
