<svg xmlns="http://www.w3.org/2000/svg" viewBox="0 0 1280 720" data-pptx-page-role="content" font-family="Microsoft YaHei, Arial, sans-serif">
  <defs>
    <marker id="arrowTri5" viewBox="0 0 10 10" refX="8" refY="5" markerWidth="7" markerHeight="7" orient="auto">
      <path d="M0 0 L10 5 L0 10 Z" fill="#375A86" />
    </marker>
  </defs>
  <rect id="bg" x="0" y="0" width="1280" height="720" fill="#FFFFFF" data-pptx-role="background" />
  <g id="header" data-pptx-bounds="40 40 1200 100">
    <text x="40" y="66" font-size="16" fill="#375A86" letter-spacing="2">02 · 系统架构与核心机制</text>
    <text x="40" y="106" font-size="36" font-weight="bold" fill="#1E293B">全模态接入：统一适配层打通五种交互</text>
    <rect x="40" y="120" width="48" height="4" fill="#C9A227" />
    <line x1="40" y1="142" x2="1240" y2="142" stroke="#DCE6F0" stroke-width="1" />
  </g>
  <g id="modality-list" data-pptx-bounds="40 164 400 500">
    <rect x="40" y="164" width="400" height="92" rx="3" fill="#F0F6FC" />
    
  <g transform="translate(62, 180) scale(1.33333)" fill="none" stroke="#375A86" stroke-width="2">
    <path d="M8 9h8" />
    <path d="M8 13h6" />
    <path d="M18 4a3 3 0 0 1 3 3v8a3 3 0 0 1 -3 3h-5l-5 3v-3h-2a3 3 0 0 1 -3 -3v-8a3 3 0 0 1 3 -3h12" />
  </g>
    <text x="106" y="202" font-size="18" font-weight="bold" fill="#1E293B">文本</text>
    <text fill="#64748B" font-size="14" x="62" y="232">SSE 流式对话，回复逐字出现；</text><text fill="#64748B" font-size="14" x="62" y="252">AI 建议抽屉带着当前方案快照。</text><line x1="440" y1="206" x2="500" y2="206" stroke="#375A86" stroke-width="2" marker-end="url(#arrowTri5)" />
    <rect x="40" y="264" width="400" height="92" rx="3" fill="#F0F6FC" />
    
  <g transform="translate(62, 278) scale(1.33333)" fill="none" stroke="#375A86" stroke-width="2">
    <path d="M9 5a3 3 0 0 1 3 -3a3 3 0 0 1 3 3v5a3 3 0 0 1 -3 3a3 3 0 0 1 -3 -3l0 -5" />
    <path d="M5 10a7 7 0 0 0 14 0" />
    <path d="M8 21l8 0" />
    <path d="M12 17l0 4" />
  </g>
    <text x="106" y="300" font-size="18" font-weight="bold" fill="#1E293B">语音</text>
    <text fill="#64748B" font-size="14" x="62" y="332">按住麦克风直接说，录音作为音频交给模型，</text><text fill="#64748B" font-size="14" x="62" y="352">听懂后回答——不是先转写再粘贴。</text><line x1="440" y1="304" x2="500" y2="304" stroke="#375A86" stroke-width="2" marker-end="url(#arrowTri5)" />
    <rect x="40" y="364" width="400" height="92" rx="3" fill="#F0F6FC" />
    
  <g transform="translate(62, 376) scale(1.33333)" fill="none" stroke="#375A86" stroke-width="2">
    <path d="M5 7h1a2 2 0 0 0 2 -2a1 1 0 0 1 1 -1h6a1 1 0 0 1 1 1a2 2 0 0 0 2 2h1a2 2 0 0 1 2 2v9a2 2 0 0 1 -2 2h-14a2 2 0 0 1 -2 -2v-9a2 2 0 0 1 2 -2" />
    <path d="M9 13a3 3 0 1 0 6 0a3 3 0 0 0 -6 0" />
  </g>
    <text x="106" y="398" font-size="18" font-weight="bold" fill="#1E293B">图片</text>
    <text fill="#64748B" font-size="14" x="62" y="432">拍照、白板、截图、扫描 PDF；不只提取文字，</text><text fill="#64748B" font-size="14" x="62" y="452">还能理解图表、流程图和手绘。</text><line x1="440" y1="402" x2="500" y2="402" stroke="#375A86" stroke-width="2" marker-end="url(#arrowTri5)" />
    <rect x="40" y="464" width="400" height="92" rx="3" fill="#F0F6FC" />
    
  <g transform="translate(62, 474) scale(1.33333)" fill="none" stroke="#375A86" stroke-width="2">
    <path d="M15 10l4.553 -2.276a1 1 0 0 1 1.447 .894v6.764a1 1 0 0 1 -1.447 .894l-4.553 -2.276v-4" />
    <path d="M3 8a2 2 0 0 1 2 -2h8a2 2 0 0 1 2 2v8a2 2 0 0 1 -2 2h-8a2 2 0 0 1 -2 -2l0 -8" />
  </g>
    <text x="106" y="496" font-size="18" font-weight="bold" fill="#1E293B">视频</text>
    <text fill="#64748B" font-size="14" x="62" y="532">会议录像边看边听，抽帧看画面、抽音频听内容，</text><text fill="#64748B" font-size="14" x="62" y="552">合并成要点与任务。</text><line x1="440" y1="500" x2="500" y2="500" stroke="#375A86" stroke-width="2" marker-end="url(#arrowTri5)" />
    <rect x="40" y="564" width="400" height="92" rx="3" fill="#F0F6FC" />
    
  <g transform="translate(62, 572) scale(1.33333)" fill="none" stroke="#375A86" stroke-width="2">
    <path d="M15 8a5 5 0 0 1 0 8" />
    <path d="M17.7 5a9 9 0 0 1 0 14" />
    <path d="M6 15h-2a1 1 0 0 1 -1 -1v-4a1 1 0 0 1 1 -1h2l3.5 -4.5a.8 .8 0 0 1 1.5 .5v14a.8 .8 0 0 1 -1.5 .5l-3.5 -4.5" />
  </g>
    <text x="106" y="594" font-size="18" font-weight="bold" fill="#1E293B">TTS</text>
    <text fill="#64748B" font-size="14" x="62" y="632">语音回复可开关、可重听；每天早晨的今日播报</text><text fill="#64748B" font-size="14" x="62" y="652">把待办念给你听。</text></g>
  <g id="adapter" data-pptx-bounds="540 210 380 200">
    <rect x="540" y="210" width="380" height="200" rx="4" fill="#375A86" />
    
  <g transform="translate(570, 238) scale(1.66667)" fill="none" stroke="#FFFFFF" stroke-width="2">
    <path d="M12 6l-8 4l8 4l8 -4l-8 -4" />
    <path d="M4 14l8 4l8 -4" />
  </g>
    <text x="628" y="268" font-size="22" font-weight="bold" fill="#FFFFFF">omni_chat 适配层</text>
    <text x="570" y="310" font-size="16" fill="#FFFFFF">统一接入 MiniCPM-o 4.5，四个语音接口</text>
    <text x="570" y="340" font-size="16" fill="#FFFFFF">行为一致；长音频自动分片处理。</text>
    <text x="570" y="376" font-size="14" fill="#D5E0EE">本地直听 / 云端先转写再理解</text>
  </g>
  <g id="backend-local" data-pptx-bounds="960 190 280 130">
    <rect x="960" y="190" width="280" height="130" rx="3" fill="#F0F6FC" stroke="#DCE6F0" stroke-width="1" />
    
  <g transform="translate(984, 212) scale(1.33333)" fill="none" stroke="#375A86" stroke-width="2">
    <path d="M5 6a1 1 0 0 1 1 -1h12a1 1 0 0 1 1 1v12a1 1 0 0 1 -1 1h-12a1 1 0 0 1 -1 -1l0 -12" />
    <path d="M9 9h6v6h-6l0 -6" />
    <path d="M3 10h2" />
    <path d="M3 14h2" />
    <path d="M10 3v2" />
    <path d="M14 3v2" />
    <path d="M21 10h-2" />
    <path d="M21 14h-2" />
    <path d="M14 21v-2" />
    <path d="M10 21v-2" />
  </g>
    <text x="1032" y="236" font-size="18" font-weight="bold" fill="#1E293B">昇腾 A3 本地</text>
    <text fill="#64748B" font-size="14" x="984" y="272">llama-omni 能直接听懂音频，</text><text fill="#64748B" font-size="14" x="984" y="292">实听实答。</text><text x="984" y="296" font-size="14" fill="#64748B">评审期主力 · 统一昇腾环境复现</text>
    <line x1="920" y1="255" x2="960" y2="255" stroke="#375A86" stroke-width="2" marker-end="url(#arrowTri5)" />
  </g>
  <g id="backend-cloud" data-pptx-bounds="960 370 280 130">
    <rect x="960" y="370" width="280" height="130" rx="3" fill="#F0F6FC" stroke="#DCE6F0" stroke-width="1" />
    
  <g transform="translate(984, 392) scale(1.33333)" fill="none" stroke="#375A86" stroke-width="2">
    <path d="M6.657 18c-2.572 0 -4.657 -2.007 -4.657 -4.483c0 -2.475 2.085 -4.482 4.657 -4.482c.393 -1.762 1.794 -3.2 3.675 -3.773c1.88 -.572 3.956 -.193 5.444 1c1.488 1.19 2.162 3.007 1.77 4.769h.99c1.913 0 3.464 1.56 3.464 3.486c0 1.927 -1.551 3.487 -3.465 3.487h-11.878" />
  </g>
    <text x="1032" y="416" font-size="18" font-weight="bold" fill="#1E293B">ModelBest 云端</text>
    <text fill="#64748B" font-size="14" x="984" y="452">turn-based 音频先转写再理解，</text><text fill="#64748B" font-size="14" x="984" y="472">开发期兜底 · 免费 API。</text><line x1="920" y1="435" x2="960" y2="435" stroke="#375A86" stroke-width="2" marker-end="url(#arrowTri5)" />
  </g>
  <g id="measure-note" data-pptx-bounds="540 440 400 120">
    <rect x="540" y="440" width="400" height="120" rx="4" fill="#F0F6FC" />
    
  <g transform="translate(566, 462) scale(1.16667)" fill="none" stroke="#375A86" stroke-width="2">
    <path d="M3 12h4l3 8l4 -16l3 8h4" />
  </g>
    <text x="608" y="484" font-size="16" font-weight="bold" fill="#1E293B">实测记录</text>
    <text fill="#1E293B" font-size="14" x="566" y="516">昇腾 A3 语音理解约 8 秒；</text><text fill="#1E293B" font-size="14" x="566" y="536">云端音频自动“先转写再理解”。</text><text x="566" y="540" font-size="14" fill="#64748B">详见 P26 工程验证。</text>
  </g>
  <g id="footer" data-pptx-bounds="40 676 1200 30">
    <text x="40" y="694" font-size="12" fill="#64748B">协作分工智能体 · 昇腾全模态版</text>
    <text x="1240" y="694" font-size="12" fill="#64748B" text-anchor="end">09 / 29 · v7.1</text>
  </g>
</svg>